<?xml version="1.0" encoding="UTF-8"?>
<svg width="360" height="165" viewBox="0 0 360 165" fill="none" xmlns="http://www.w3.org/2000/svg" role="img" aria-labelledby="title desc">
  <title id="title">FengLingYu7563 top languages</title>
  <desc id="desc">Automatically generated language usage across public repositories.</desc>
  <style>
    .card { fill: #0d1117; }
    .title { fill: #58a6ff; font: 600 18px Segoe UI, Ubuntu, Sans-Serif; }
    .label { fill: #c9d1d9; font: 400 13px Segoe UI, Ubuntu, Sans-Serif; }
    .value { fill: #f0f6fc; font: 700 13px Segoe UI, Ubuntu, Sans-Serif; }
  </style>
  <rect class="card" width="360" height="165" rx="6"/>
  <text x="24" y="34" class="title">Most Used Languages</text>
  <rect x="24" y="52" width="118" height="8" fill="#f1e05a" rx="4"/><rect x="142" y="52" width="115" height="8" fill="#3572A5" rx="4"/><rect x="257" y="52" width="58" height="8" fill="#A97BFF" rx="4"/><rect x="315" y="52" width="20" height="8" fill="#b07219" rx="4"/><rect x="335" y="52" width="4" height="8" fill="#00ADD8" rx="4"/>
  
      <circle cx="29" cy="76" r="4" fill="#f1e05a"/>
      <text x="42" y="80" class="label">Python</text>
      <text x="336" y="80" text-anchor="end" class="value">37.8%</text>
      <circle cx="29" cy="94" r="4" fill="#3572A5"/>
      <text x="42" y="98" class="label">Java</text>
      <text x="336" y="98" text-anchor="end" class="value">36.8%</text>
      <circle cx="29" cy="112" r="4" fill="#A97BFF"/>
      <text x="42" y="116" class="label">Kotlin</text>
      <text x="336" y="116" text-anchor="end" class="value">18.5%</text>
      <circle cx="29" cy="130" r="4" fill="#b07219"/>
      <text x="42" y="134" class="label">C#</text>
      <text x="336" y="134" text-anchor="end" class="value">6.5%</text>
      <circle cx="29" cy="148" r="4" fill="#00ADD8"/>
      <text x="42" y="152" class="label">Dockerfile</text>
      <text x="336" y="152" text-anchor="end" class="value">0.2%</text>
</svg>
